# xmcd
#
# Track frame offsets:
#	150
#	16872
#	35763
#	53327
#
# Disc length: 927 seconds
#
# Revision: 0
# Processed by: cddbd v1.5.2PL0 Copyright (c) Steve Scherf et al.
# Submitted via: audiograbber 1.83.01
#
DISCID=24039d04
DTITLE=Viola - Iconcrash - Viola - Iconcrash EP
DYEAR=2004
DGENRE=Electronic
TTITLE0=Iconcrash - Loveghost
TTITLE1=Viola - Violentia
TTITLE2=Iconcrash - Lovelights
TTITLE3=Viola - Chains Around My Heart
EXTD=TR.
EXTT0=
EXTT1=
EXTT2=
EXTT3=
PLAYORDER=
